PathFileType	4	(X/Y/Z)	E:\Studenten\Marcel_BSc\Ayumi_25_09_2024\25-09-2024\static_00.trc
DataRate	CameraRate	NumFrames	NumMarkers	Units	OrigDataRate	OrigDataStartFrame	OrigNumFrames
200.0	200.0	4	62	mm	200.0	259	295	
Frame#	Time	LASI			RASI			RSACR			LSACR			USACR			LBAR			RBAR			RHEE			RMT1			RMT5			RMT2			LHEE			LMT1			LMT5			LMT2			LMMAL			LMFC			LLFC			LLMAL			LTIB4			LTIB2			LTIB3			LTIB1			RMMAL			RMFC			RLFC			RLMAL			RTIB1			RTIB2			RTIB3			RTHI1			RTHI4			RTHI3			RTHI2			LTHI1			LTHI4			LTHI3			LTHI2			FHD			LBHD			RBHD			C7			T10			CLAV			LSHO			RSHO			LRAD			LUL			LRFIN			RRAD			RUL			RUFIN			RLEP			RMEP			LLEP			LMEP			LDUPA			LMUPA			LUUPA			RDUPA			RUUPA			RMUPA			
		X1	Y1	Z1	X2	Y2	Z2	X3	Y3	Z3	X4	Y4	Z4	X5	Y5	Z5	X6	Y6	Z6	X7	Y7	Z7	X8	Y8	Z8	X9	Y9	Z9	X10	Y10	Z10	X11	Y11	Z11	X12	Y12	Z12	X13	Y13	Z13	X14	Y14	Z14	X15	Y15	Z15	X16	Y16	Z16	X17	Y17	Z17	X18	Y18	Z18	X19	Y19	Z19	X20	Y20	Z20	X21	Y21	Z21	X22	Y22	Z22	X23	Y23	Z23	X24	Y24	Z24	X25	Y25	Z25	X26	Y26	Z26	X27	Y27	Z27	X28	Y28	Z28	X29	Y29	Z29	X30	Y30	Z30	X31	Y31	Z31	X32	Y32	Z32	X33	Y33	Z33	X34	Y34	Z34	X35	Y35	Z35	X36	Y36	Z36	X37	Y37	Z37	X38	Y38	Z38	X39	Y39	Z39	X40	Y40	Z40	X41	Y41	Z41	X42	Y42	Z42	X43	Y43	Z43	X44	Y44	Z44	X45	Y45	Z45	X46	Y46	Z46	X47	Y47	Z47	X48	Y48	Z48	X49	Y49	Z49	X50	Y50	Z50	X51	Y51	Z51	X52	Y52	Z52	X53	Y53	Z53	X54	Y54	Z54	X55	Y55	Z55	X56	Y56	Z56	X57	Y57	Z57	X58	Y58	Z58	X59	Y59	Z59	X60	Y60	Z60	X61	Y61	Z61	X62	Y62	Z62	
259	1.29	134.57222	918.4165	-762.18481	130.55405	918.99384	-984.59894	310.27823	949.97253	-912.23114	309.38254	953.23932	-852.37146	298.63077	966.36908	-882.2301	1270.8505	26.313473	346.47504	1226.4166	26.274328	-1876.9269	323.08038	39.829651	-1019.65	128.17896	43.446297	-1043.3324	165.07245	34.82082	-1113.6841	140.17639	42.698124	-1079.964	326.27045	45.818016	-745.15894	134.40005	46.330795	-736.44824	170.02625	33.37006	-662.797	143.18837	45.919655	-698.03357	276.70892	72.936729	-778.68652	233.16457	456.92911	-829.02844	219.46385	454.01944	-721.4021	278.82416	69.134109	-700.95386	290.36676	209.55737	-691.43591	314.06677	270.88333	-691.35516	263.56509	268.13852	-684.48309	301.76895	314.27057	-686.98499	275.19394	68.358932	-994.06555	235.55548	446.5719	-935.37671	220.9254	461.35043	-1041.2675	284.69019	72.236824	-1068.6132	257.33423	319.25247	-1082.7052	307.78308	313.95966	-1077.1666	276.78445	256.12604	-1081.3116	242.55836	783.84052	-1060.014	243.18846	635.07556	-1064.882	191.92592	637.09766	-1066.6167	219.71133	697.18085	-1070.1919	239.01791	778.92773	-698.64117	236.76959	646.59363	-694.97266	186.11433	637.56854	-693.39191	200.63739	701.31818	-689.17822	131.24321	1592.9233	-775.48083	242.0497	1575.927	-786.27759	253.80856	1571.2278	-909.70795	264.01157	1391.4529	-857.8869	286.6731	1007.4538	-877.33069	142.09169	1328.4313	-872.71814	245.75865	1381.0452	-725.20947	237.68678	1397.1635	-986.65491	167.60509	1358.108	-222.71738	208.24385	1353.8259	-222.36749	154.397	1337.3138	-130.71822	243.07474	1391.8185	-1500.4626	289.96671	1385.7563	-1499.4984	237.51833	1394.2816	-1590.6276	294.94528	1331.5186	-1271.2664	256.80194	1297.8899	-1271.9886	223.03041	1300.296	-454.25696	182.11984	1277.9019	-466.83978	239.0074	1354.0217	-506.21008	203.03552	1371.5771	-536.68817	239.8812	1362.592	-585.47156	267.74506	1383.6188	-1205.5028	258.35925	1385.0072	-1143.8145	217.54688	1386.5793	-1212.1047
260	1.295	134.5831	918.4198	-762.19519	130.56918	918.9953	-984.61438	310.29608	949.97815	-912.23798	309.40182	953.24481	-852.37915	298.64172	966.36823	-882.24261	1270.823	26.288324	346.49612	1226.4008	26.294437	-1876.9365	323.08597	39.833107	-1019.6356	128.18753	43.449986	-1043.3292	165.0802	34.819958	-1113.6866	140.17638	42.698498	-1079.9739	326.27158	45.809132	-745.15375	134.40112	46.333706	-736.4436	170.02823	33.375854	-662.79108	143.18819	45.916023	-698.03009	276.70288	72.938408	-778.672	233.15845	456.93536	-829.03339	219.46165	454.02014	-721.40924	278.82114	69.118904	-700.95148	290.37704	209.55589	-691.43396	314.06638	270.88669	-691.36481	263.57553	268.14191	-684.47278	301.77435	314.28189	-686.97882	275.19656	68.354767	-994.07141	235.56778	446.56735	-935.37421	220.92349	461.35925	-1041.2668	284.68878	72.229935	-1068.6133	257.32648	319.26028	-1082.7074	307.77405	313.9621	-1077.1682	276.78046	256.12109	-1081.3322	242.57994	783.83765	-1060.0156	243.22406	635.06097	-1064.8739	191.93576	637.09894	-1066.6543	219.82719	697.09015	-1070.1396	239.02979	778.92493	-698.65179	236.77521	646.59137	-694.98608	186.11978	637.57196	-693.4118	200.65036	701.30542	-689.19824	131.25586	1592.9196	-775.47949	242.04785	1575.9324	-786.2666	253.80057	1571.2208	-909.69208	264.01736	1391.4564	-857.88391	286.68808	1007.4557	-877.33441	142.10545	1328.4431	-872.70715	245.76625	1381.0504	-725.21869	237.68399	1397.168	-986.65576	167.66652	1358.1564	-222.70633	208.29219	1353.8799	-222.36313	154.46477	1337.3744	-130.70888	243.11287	1391.825	-1500.4586	290.01505	1385.7594	-1499.4922	237.56699	1394.2911	-1590.6262	294.97003	1331.5323	-1271.2441	256.82156	1297.8943	-1271.9906	223.0558	1300.3182	-454.24619	182.14618	1277.9279	-466.83228	238.97816	1353.9497	-506.25699	203.06192	1371.5951	-536.68402	239.88974	1362.5953	-585.46643	267.75046	1383.6371	-1205.4989	258.37598	1385.019	-1143.8075	217.57263	1386.5883	-1212.1064
261	1.3	134.59869	918.42877	-762.20734	130.58116	918.99548	-984.61768	310.30969	949.97296	-912.24268	309.42459	953.24664	-852.37604	298.66721	966.37109	-882.2395	1270.821	26.282938	346.47473	1226.3965	26.299572	-1876.9528	323.07947	39.835938	-1019.6371	128.17955	43.459702	-1043.3274	165.01385	34.985703	-1113.804	140.1808	42.698868	-1079.9677	326.26544	45.809113	-745.15564	134.40353	46.331459	-736.45026	170.02951	33.37085	-662.80145	143.1826	45.921696	-698.02924	276.70129	72.940987	-778.67957	233.16679	456.93707	-829.04279	219.47513	454.02219	-721.41138	278.82404	69.121773	-700.96265	290.36441	209.55182	-691.43646	314.07822	270.86472	-691.35321	263.5798	268.14066	-684.48022	301.78851	314.27353	-686.98511	275.2023	68.356674	-994.08173	235.57149	446.57495	-935.39093	220.94514	461.35214	-1041.2693	284.68506	72.237854	-1068.6168	257.3512	319.25293	-1082.7041	307.80106	313.9613	-1077.1709	276.78696	256.11389	-1081.335	242.57906	783.85406	-1060.0259	243.23091	635.08344	-1064.8837	191.96982	637.11658	-1066.6115	219.83537	697.08685	-1070.1488	239.0463	778.93671	-698.67169	236.66608	646.55627	-694.61475	186.1268	637.57263	-693.41687	200.65688	701.31055	-689.22174	131.2505	1592.9164	-775.46967	242.04488	1575.9358	-786.25995	253.8096	1571.2369	-909.69043	264.01608	1391.4653	-857.87988	286.69852	1007.4613	-877.34418	142.12242	1328.4633	-872.69366	245.77925	1381.067	-725.21503	237.67073	1397.1761	-986.65887	167.71622	1358.1992	-222.70573	208.34009	1353.9343	-222.36078	154.51003	1337.4446	-130.68848	243.15385	1391.8365	-1500.453	290.05362	1385.7687	-1499.4775	237.61237	1394.2952	-1590.6238	294.98798	1331.5394	-1271.25	256.83786	1297.9015	-1271.9886	223.07204	1300.3447	-454.25238	182.1564	1277.9583	-466.82892	239.01855	1353.964	-506.25955	203.0648	1371.6274	-536.68018	239.97525	1362.5863	-585.44867	267.76404	1383.6554	-1205.4895	258.3829	1385.0304	-1143.8029	217.57233	1386.5813	-1212.0983
262	1.305	134.60855	918.4314	-762.23132	130.59944	918.9928	-984.62622	310.32379	949.98584	-912.26276	309.43875	953.24872	-852.38647	298.69357	966.3761	-882.25684	1270.8326	26.289862	346.46371	1226.3967	26.290318	-1876.9351	323.07727	39.832577	-1019.6418	128.17079	43.446522	-1043.3481	165.07912	34.824417	-1113.6875	140.16583	42.693878	-1079.9686	326.26413	45.806324	-745.16028	134.40073	46.33128	-736.44855	170.01064	33.387081	-662.78778	143.18335	45.922298	-698.03009	276.70438	72.940224	-778.68097	233.17686	456.9541	-829.04553	219.49168	454.02209	-721.41266	278.80264	69.123688	-700.95404	290.39066	209.54977	-691.44867	314.09601	270.86563	-691.36176	263.58276	268.14285	-684.48358	301.78195	314.3074	-686.96686	275.19376	68.350792	-994.06964	235.58382	446.57654	-935.38727	220.95425	461.35483	-1041.2825	284.68674	72.238228	-1068.6173	257.35593	319.2645	-1082.7172	307.80948	313.95273	-1077.1691	276.80399	256.12759	-1081.3416	242.60469	783.83838	-1060.026	243.25304	635.08228	-1064.8694	191.97797	637.10773	-1066.6326	219.84897	697.08105	-1070.1582	239.0634	778.93463	-698.68579	236.80246	646.60669	-695.03534	186.14331	637.57257	-693.42511	200.67181	701.31879	-689.23236	131.25238	1592.9149	-775.46088	242.04512	1575.9431	-786.25897	253.79988	1571.2346	-909.6828	264.01419	1391.4635	-857.8866	286.72217	1007.4655	-877.35535	142.12704	1328.4766	-872.69348	245.79533	1381.1047	-725.21411	237.67346	1397.1815	-986.6568	167.75812	1358.248	-222.69983	208.37569	1353.9803	-222.3685	154.55257	1337.5165	-130.68071	243.1954	1391.8367	-1500.4557	290.09448	1385.7657	-1499.4785	237.66232	1394.298	-1590.6289	295.0029	1331.55	-1271.2373	256.8533	1297.9095	-1271.9838	223.09871	1300.3677	-454.24756	182.18044	1277.9888	-466.81909	239.04492	1353.986	-506.24658	203.07718	1371.6365	-536.68164	239.94682	1362.6597	-585.45813	267.77768	1383.667	-1205.4982	258.39282	1385.0431	-1143.7977	217.58614	1386.5848	-1212.0852
